<mxfile host="app.diagrams.net" modified="2024-05-23T01:29:12.574Z" agent="Mozilla/5.0 (Macintosh; Intel Mac OS X 10_15_7) AppleWebKit/537.36 (KHTML, like Gecko) Chrome/124.0.0.0 Safari/537.36" etag="NCHNtXPFXjmA8ooZ_4dR" version="24.4.0" type="github">
  <diagram name="Page-1" id="9361dd3d-8414-5efd-6122-117bd74ce7a7">
    <mxGraphModel dx="1457" dy="1523" grid="1" gridSize="10" guides="1" tooltips="1" connect="1" arrows="1" fold="1" page="0" pageScale="1.5" pageWidth="826" pageHeight="1169" background="none" math="0" shadow="0">
      <root>
        <mxCell id="0" />
        <mxCell id="1" parent="0" />
        <mxCell id="FwPFDNN1OWdhnqfOistw-101" value="Diagram Heading" style="shape=umlFrame;whiteSpace=wrap;html=1;pointerEvents=0;recursiveResize=0;container=1;collapsible=0;width=160;" vertex="1" parent="1">
          <mxGeometry x="260" y="-610" width="860" height="730" as="geometry" />
        </mxCell>
        <mxCell id="FwPFDNN1OWdhnqfOistw-114" value="Lifeline1" style="shape=umlLifeline;perimeter=lifelinePerimeter;whiteSpace=wrap;html=1;container=1;dropTarget=0;collapsible=0;recursiveResize=0;outlineConnect=0;portConstraint=eastwest;newEdgeStyle={&quot;edgeStyle&quot;:&quot;elbowEdgeStyle&quot;,&quot;elbow&quot;:&quot;vertical&quot;,&quot;curved&quot;:0,&quot;rounded&quot;:0};" vertex="1" parent="FwPFDNN1OWdhnqfOistw-101">
          <mxGeometry x="230" y="100" width="145" height="630" as="geometry" />
        </mxCell>
        <mxCell id="FwPFDNN1OWdhnqfOistw-115" value="" style="html=1;points=[[0,0,0,0,5],[0,1,0,0,-5],[1,0,0,0,5],[1,1,0,0,-5]];perimeter=orthogonalPerimeter;outlineConnect=0;targetShapes=umlLifeline;portConstraint=eastwest;newEdgeStyle={&quot;curved&quot;:0,&quot;rounded&quot;:0};fillColor=#333333;" vertex="1" parent="FwPFDNN1OWdhnqfOistw-114">
          <mxGeometry x="45" y="90" width="10" height="120" as="geometry" />
        </mxCell>
        <mxCell id="FwPFDNN1OWdhnqfOistw-112" value="Lifeline2" style="shape=umlLifeline;perimeter=lifelinePerimeter;whiteSpace=wrap;html=1;container=1;dropTarget=0;collapsible=0;recursiveResize=0;outlineConnect=0;portConstraint=eastwest;newEdgeStyle={&quot;edgeStyle&quot;:&quot;elbowEdgeStyle&quot;,&quot;elbow&quot;:&quot;vertical&quot;,&quot;curved&quot;:0,&quot;rounded&quot;:0};" vertex="1" parent="1">
          <mxGeometry x="780" y="-500" width="100" height="300" as="geometry" />
        </mxCell>
        <mxCell id="FwPFDNN1OWdhnqfOistw-113" value="" style="html=1;points=[[0,0,0,0,5],[0,1,0,0,-5],[1,0,0,0,5],[1,1,0,0,-5]];perimeter=orthogonalPerimeter;outlineConnect=0;targetShapes=umlLifeline;portConstraint=eastwest;newEdgeStyle={&quot;curved&quot;:0,&quot;rounded&quot;:0};fillColor=#808080;" vertex="1" parent="FwPFDNN1OWdhnqfOistw-112">
          <mxGeometry x="45" y="90" width="10" height="120" as="geometry" />
        </mxCell>
      </root>
    </mxGraphModel>
  </diagram>
</mxfile>
